<svg xmlns="http://www.w3.org/2000/svg" viewBox="0 0 24 24" fill="none" stroke="currentColor" stroke-width="2.0" stroke-linecap="round" stroke-linejoin="round">
  <path d="M9 9 C 9 7.3, 7.7 6, 6 6 C 4.3 6, 3 7.3, 3 9 C 3 10.7, 4.3 12, 6 12 C 7.7 12, 9 10.7, 9 9 Z"/>
  <path d="M2 20 C 2 16.7, 3.7 14.6, 6 14.6 C 8.3 14.6, 10 16.7, 10 20"/>
  <path d="M18.5 9 C 18.5 7.3, 17.2 6, 15.5 6 C 13.8 6, 12.5 7.3, 12.5 9 C 12.5 10.7, 13.8 12, 15.5 12 C 17.2 12, 18.5 10.7, 18.5 9 Z"/>
  <path d="M11.5 20 C 11.5 16.7, 13.2 14.6, 15.5 14.6 C 17.8 14.6, 19.5 16.7, 19.5 20"/>
</svg>