<svg xmlns="http://www.w3.org/2000/svg" viewBox="0 0 24 24" fill="none" stroke="currentColor" stroke-width="2.0" stroke-linecap="round" stroke-linejoin="round">
  <path d="M4 5.5 C 4 4.4, 4.9 3.6, 6 3.6 L 18 3.7 C 19.1 3.7, 20 4.5, 20 5.6 L 20 14.4 C 20 15.5, 19.1 16.3, 18 16.3 L 9.5 16.3 L 5.6 19.8 L 5.7 16.3 C 4.7 16.2, 4 15.4, 4 14.4 Z"/>
  <path d="M9.4 7.6 C 9.6 6.5, 10.6 5.9, 11.9 6 C 13.3 6.1, 14.2 6.9, 14.1 8.1 C 14 9.4, 12.9 9.7, 12.2 10.4 C 11.8 10.8, 11.8 11.3, 11.8 11.8"/>
  <path d="M11.7 13.7 L 11.7 13.8"/>
</svg>